<?xml version="1.0" encoding="utf-8"?>
<!-- Generator: Adobe Illustrator 16.0.4, SVG Export Plug-In . SVG Version: 6.00 Build 0)  -->
<!DOCTYPE svg PUBLIC "-//W3C//DTD SVG 1.1//EN" "http://www.w3.org/Graphics/SVG/1.1/DTD/svg11.dtd">
<svg version="1.1" xmlns="http://www.w3.org/2000/svg" xmlns:xlink="http://www.w3.org/1999/xlink" x="0px" y="0px" width="496px"
	 height="494.043px" viewBox="0 0 496 494.043" enable-background="new 0 0 496 494.043" xml:space="preserve">
<g id="pill-oval">
	<g>
		<path fill="#FFFFFF" d="M451.246,191.633L277.231,45.348l0.873,0.734C321.341,6.84,386.166,3.311,430.052,40.202
			c43.885,36.893,51.549,101.361,20.32,150.696"/>
		<path fill="#FFFFFF" d="M266.111,58.576l174.015,146.286l-0.873-0.734c-43.236,39.241-108.062,42.771-151.947,5.88
			c-43.885-36.894-51.549-101.362-20.321-150.697"/>
	</g>
</g>
<g id="pill-round">
	<path fill="#FFFFFF" d="M262.963,216.5l-72.913-72.913l0.629-0.629l-0.629,0.629l-0.678-0.678l-0.285,0.285
		c-46.391-34.771-110.777-32.532-151.105,7.768C-2.364,191.281-4.63,255.703,30.157,302.123l-0.724,0.724l0.625,0.625l-0.181,0.182
		l0.182-0.182l72.965,72.966L262.963,216.5z"/>
	<path fill="#FFFFFF" d="M352.439,306.449l0.236-0.236l-0.612-0.612l0.667-0.667l-0.667,0.667l-72.979-72.979L119.146,392.561
		l72.925,72.925l-0.144,0.144l0.144-0.144l0.666,0.666l0.768-0.768c46.391,34.782,110.787,32.546,151.12-7.759
		C384.976,417.303,387.236,352.87,352.439,306.449z"/>
</g>
</svg>
